Patient4_TMGait_0pt4_03_left_36_EMG.mot
version=1
nRows=20
nColumns=33
inDegrees=no
endheader
time	1LAddLong	2LGlutMax	3LGlutMed	4LIliopsoas	5LSemiMemb	6LBicFemLong	7LRecFem	8LVastMed	9LVastLat	10LGasMed	11LTibAnt	12lTibPost	13LPeroneusLong	14LSol	15LExtDigLong	16LFlexDigLong	17RAddLong	18RGlutMax	19RGlutMed	20RIliopsoas	21RSemiMemb	22RBicFemLong	23RRecFem	24RVastMed	25RVastLat	26RGasMed	27RTibAnt	28RTibPost	29RPeroneusLong	30RSol	31RExtDigLong	32RFlexDigLong
48.62	0.000458	0.084381	-0.26901	0.007172	-0.007935	0.12695	0.020905	-0.002899	-0.008545	-0.13214	0.004425	-0.007782	0.026245	-0.013123	0.018005	0.000916	-0.10056	-0.004578	0.30701	-0.12131	0.11795	0.14496	-0.32166	0.057678	-0.055237	0.006714	0.14603	-0.000916	-0.12756	-0.050964	-0.001068	-0.005188
48.621	0.002136	0.088043	-0.25177	-0.00061	-0.014648	0.096436	0.029144	-0.001831	0.004883	-0.077057	0.005035	0.010376	-0.2211	0.1442	0.026855	-1.1864	-0.10071	0.033875	0.10696	-0.12634	0.25681	0.068359	-0.57938	0.082245	0.12039	0.005798	0.4567	0.00351	-0.087433	-0.035553	0.000763	-0.00946
48.622	0.003815	0.10071	-0.27435	0.012665	-0.010376	0.080261	0.040894	-0.001068	-0.011292	0.054016	0.019836	-0.001221	-0.071564	0.077209	0.019073	0.31647	-0.050354	0.061188	-0.35523	-0.16251	0.25452	0.053253	-0.59738	0.1326	0.23621	-0.001831	0.46493	0.001678	-0.20157	0.049591	-0.001068	-0.007629
48.623	-0.001831	0.072937	-0.25559	0.001984	0.000305	0.028076	0.063782	-0.002289	0.004578	-0.011444	0.000305	-0.039368	-0.041046	0.005493	0.015106	0.8606	-0.01358	0.004272	-0.20523	-0.14847	0.067749	0.072021	-0.18967	0.26596	0.12054	0.001068	0.383	-0.001068	-0.099945	0.07431	-0.002441	-0.006256
48.624	0.002899	0.077972	-0.22354	0.010681	0.021057	-0.004272	0.066681	0.001221	0.001526	0.065918	-0.011749	-0.026093	0.053101	-0.011597	0.017242	-0.13214	-0.004883	-0.02533	-0.002594	0.076447	0.059662	-0.019226	-0.112	0.10956	0.008698	-0.001831	0.25284	-0.001678	0.023346	0.057526	-0.002747	-0.006714
48.625	0.000763	0.03067	-0.16861	0.00885	0.024719	0.041199	0.093842	0.001984	-0.015259	0.31723	-0.011902	0.051422	0.19089	-0.009155	0.020294	-0.06546	-0.008087	-0.072174	0.11627	0.24353	-0.074768	-0.037842	-0.19898	0.074615	0.076447	0.001678	-0.094147	-0.002441	0.14984	-0.060272	-0.000763	-0.010223
48.626	0.00412	0.057831	-0.16342	-0.00412	0.014038	-0.006866	0.094299	0.008545	-0.013123	0.78522	-0.015564	0.062408	-0.054016	-0.17532	0.00061	0.298	0.020447	-0.060883	-0.015717	0.11993	-0.13489	-0.061646	-0.1355	0.037231	0.20615	0.001526	-0.36377	0.000458	0.14175	-0.072174	-0.001526	-0.007782
48.627	-0.000916	0.062256	-0.12405	0.009766	0.006104	-0.038452	0.10483	0.007324	-0.005188	0.66483	-0.019379	-0.081177	-0.074463	-0.2327	-0.001068	0.23453	-0.004578	-0.042877	-0.34592	0.050812	0.41611	-0.097961	-0.11948	-0.022736	0.25879	0.003357	-0.20172	0.001678	0.10513	-0.052338	-0.001373	-0.012512
48.628	-0.003967	0.052643	-0.10895	0.012817	-0.010223	-0.059052	0.10117	0.004272	-0.016327	0.33676	-0.001068	-0.069733	-0.094299	0.029755	0.008698	-0.079041	-0.050812	-0.026398	-0.43625	0.11444	0.4303	-0.079041	-0.13107	-0.11322	0.24078	-0.001221	-0.085907	0.001526	0.007782	-0.018768	0.000916	-0.011292
48.629	0.002899	0.046082	-0.10849	-0.000916	-0.022278	-0.075073	0.076141	0.003967	-0.004272	-0.40497	-0.011444	-0.13809	-0.021973	0.20416	0.033569	-0.02182	-0.002594	-0.032654	-0.34393	0.25162	0.32013	-0.10956	-0.13428	-0.2272	0.21576	0.005798	0.003662	0.005798	0.39337	-0.016632	-0.009766	-0.003052
48.63	0.007782	0.080872	-0.11414	-0.005646	-0.013123	-0.09201	0.072327	0.000458	-0.010681	-0.088654	0.003204	-0.061493	0.031738	0.024414	0.008545	-0.030975	0.010681	-0.034332	-0.27069	0.18066	0.13962	-0.054321	-0.16998	-0.08606	0.27664	0.002289	0.088654	0.002441	0.10712	0.021973	0	-0.019379
48.631	0.014191	0.043335	-0.059814	0.002899	-0.003052	-0.062256	0.058899	0.005646	-0.015869	-0.18066	-0.009613	0.20767	-0.001068	-0.35538	-0.026245	-0.052948	-0.023651	-0.049896	-0.1503	0.010223	0.21454	-0.021667	-0.13229	0.15869	0.2243	0.004272	0.18188	0.002747	-0.20798	0.10223	-0.001068	-0.009766
48.632	0.008698	0.086823	-0.041046	0.012665	0.004578	-0.015717	0.071564	0.001526	-0.010529	-0.71747	0.011292	-0.13901	-0.009766	-0.43045	-0.031128	-0.03418	-0.037537	-0.014038	-0.14008	-0.097504	0.41504	-0.029449	0.007629	0.054169	0.08316	0.000458	0.17242	0.004272	-0.45548	0.087738	-0.005646	-0.009613
48.633	0.009308	0.11353	0.013428	0.00412	0.008087	-0.095367	0.056458	0.001678	-0.007782	-0.4184	0.007324	0.054321	-0.018616	-0.24139	-0.03006	-0.008087	0	-0.016479	0.68375	-0.14236	0.22415	0.054626	0.046997	-0.079193	-0.021973	-0.007324	0.10132	0.002289	-0.37674	0.1152	-0.002441	-0.00946
48.634	0.00946	0.074005	0.058746	0.005035	-0.003815	-0.13199	0.073547	0.002899	-0.011902	-0.10101	0.00473	-0.017242	-0.076294	-0.022736	-0.0177	-0.028839	0.081329	-0.067139	0.56213	-0.22369	0.13489	0.11581	0.07843	-0.28275	-0.14893	-0.005341	0.042267	0.002136	-0.14771	0.056763	-0.003357	-0.005493
48.635	0.044098	0.072784	0.09903	0.011749	0.005493	-0.080566	0.090637	0.00824	-0.023193	-0.048676	0.00824	-0.023804	-0.10361	0.040588	-0.011597	-0.043945	0.13229	-0.16708	0.15854	-0.16052	0.13473	0.11612	0.11017	-0.36758	-0.089569	0.001373	0.058136	0.004425	-0.036011	0.02594	-0.009003	-0.00412
48.636	0.03891	0.081635	0.10605	-0.014801	-0.022125	-0.053406	0.072021	0.00824	-0.019531	-0.37064	-0.005035	0.012512	0.031738	0.095673	-0.007019	-0.041809	0.10757	-0.24933	-0.20187	0.020752	-0.004272	0.15335	0.038452	-0.43411	0.010223	-0.002899	0.068817	0.003357	-0.042267	0.077515	-0.002289	-0.000916
48.637	0.022888	0.091095	0.10895	0.014954	-0.019379	-0.090485	0.063934	0.011139	-0.007172	-0.32135	0.002441	0.024109	0.007324	0.1236	0.00473	-0.023499	0.031128	-0.34271	-0.72113	0.031433	-0.058899	0.24567	-0.077362	-0.42557	0.055389	-0.000763	0.024109	0.001984	-0.003662	0.038605	-0.00061	-0.005951
48.638	-0.009918	0.099945	0.086975	0.024719	-0.017395	-0.091705	0.070038	0.010834	0.001984	-0.014496	0.012207	0.006409	-0.13473	0.16556	0.017548	-0.007782	-0.054169	-0.30914	-0.59341	0.085144	-0.070801	0.28153	-0.11597	-0.47775	0.083618	-0.001526	-0.0177	0.005035	-0.007935	0.000916	-0.001678	-0.007477
48.639	0.009918	0.14526	0.077515	0.007324	-0.006561	-0.1236	0.07309	0.00412	-0.000916	-0.12604	-0.005035	0.017242	-0.0383	0.16357	0.017853	-0.006256	-0.02121	-0.327	-0.57846	0.16144	0.16754	0.1088	-0.20706	-0.29907	0.063629	0.003052	0.012054	0.001831	-0.18631	-0.037384	0.000153	-0.008087
